version = 1
nColumns = 19
nRows = 22
inDegrees = yes
endheader 
time	r_ground_force_vx	r_ground_force_vy	r_ground_force_vz	r_ground_force_px	r_ground_force_py	r_ground_force_pz	l_ground_force_vx	l_ground_force_vy	l_ground_force_vz	l_ground_force_px	l_ground_force_py	l_ground_force_pz	r_ground_torque_x	r_ground_torque_y	r_ground_torque_z	l_ground_torque_x	l_ground_torque_y	l_ground_torque_z	
          0.00000000	          0.00000000	          0.00000000	          0.00000000	          0.00000000	          0.00000000	          0.00000000	          0.00000000	          0.00000000	          0.00000000	          0.00000000	          0.00000000	          0.00000000	          0.00000000	          0.00000000	          0.00000000	          0.00000000	          0.00000000	          0.00000000	
          0.00072325	          0.00000000	          0.00000000	          0.00000000	          0.00000000	          0.00000000	          0.00000000	          0.00000000	          0.00000000	          0.00000000	          0.00000000	          0.00000000	          0.00000000	          0.00000000	          0.00000000	          0.00000000	          0.00000000	          0.00000000	          0.00000000	
          0.00300841	          0.00000000	          0.00000000	          0.00000000	          0.00000000	          0.00000000	          0.00000000	          0.00000000	          0.00000000	          0.00000000	          0.00000000	          0.00000000	          0.00000000	          0.00000000	          0.00000000	          0.00000000	          0.00000000	          0.00000000	          0.00000000	
          0.00466457	          0.00000000	          0.00000000	          0.00000000	          0.00000000	          0.00000000	          0.00000000	          0.00000000	          0.00000000	          0.00000000	          0.00000000	          0.00000000	          0.00000000	          0.00000000	          0.00000000	          0.00000000	          0.00000000	          0.00000000	          0.00000000	
          0.00538781	          0.00000000	          0.00000000	          0.00000000	          0.00000000	          0.00000000	          0.00000000	          0.00000000	          0.00000000	          0.00000000	          0.00000000	          0.00000000	          0.00000000	          0.00000000	          0.00000000	          0.00000000	          0.00000000	          0.00000000	          0.00000000	
          0.00767297	          0.00000000	          0.00000000	          0.00000000	          0.00000000	          0.00000000	          0.00000000	          0.00000000	          0.00000000	          0.00000000	          0.00000000	          0.00000000	          0.00000000	          0.00000000	          0.00000000	          0.00000000	          0.00000000	          0.00000000	          0.00000000	
          0.00932913	          0.00000000	          0.00000000	          0.00000000	          0.00000000	          0.00000000	          0.00000000	          0.00000000	          0.00000000	          0.00000000	          0.00000000	          0.00000000	          0.00000000	          0.00000000	          0.00000000	          0.00000000	          0.00000000	          0.00000000	          0.00000000	
          0.01005238	          0.00000000	          0.00000000	          0.00000000	          0.00000000	          0.00000000	          0.00000000	          0.00000000	          0.00000000	          0.00000000	          0.00000000	          0.00000000	          0.00000000	          0.00000000	          0.00000000	          0.00000000	          0.00000000	          0.00000000	          0.00000000	
          0.01233754	          0.00000000	          0.00000000	          0.00000000	          0.00000000	          0.00000000	          0.00000000	          0.00000000	          0.00000000	          0.00000000	          0.00000000	          0.00000000	          0.00000000	          0.00000000	          0.00000000	          0.00000000	          0.00000000	          0.00000000	          0.00000000	
          0.01399370	          0.00000000	          0.00000000	          0.00000000	          0.00000000	          0.00000000	          0.00000000	          0.00000000	          0.00000000	          0.00000000	          0.00000000	          0.00000000	          0.00000000	          0.00000000	          0.00000000	          0.00000000	          0.00000000	          0.00000000	          0.00000000	
          0.01471695	          0.00000000	          0.00000000	          0.00000000	          0.00000000	          0.00000000	          0.00000000	          0.00000000	          0.00000000	          0.00000000	          0.00000000	          0.00000000	          0.00000000	          0.00000000	          0.00000000	          0.00000000	          0.00000000	          0.00000000	          0.00000000	
          0.01700211	        -74.34356438	         46.27057809	        -37.32782755	          0.21610633	          0.00000000	          0.08790827	          0.00000000	          0.00000000	          0.00000000	          0.00000000	          0.00000000	          0.00000000	          0.00000000	          0.10741734	          0.00000000	          0.00000000	          0.00000000	          0.00000000	
          0.01865827	       -156.98735959	        108.85968016	        -89.32694719	          0.22800240	          0.00000000	          0.09377292	          0.00000000	          0.00000000	          0.00000000	          0.00000000	          0.00000000	          0.00000000	          0.00000000	          0.77133522	          0.00000000	          0.00000000	          0.00000000	          0.00000000	
          0.01938151	       -241.57012535	        177.99293734	       -153.88236192	          0.23283721	          0.00000000	          0.09577849	          0.00000000	          0.00000000	          0.00000000	          0.00000000	          0.00000000	          0.00000000	          0.00000000	          1.75526149	          0.00000000	          0.00000000	          0.00000000	          0.00000000	
          0.02166667	       -797.99903315	        926.14201882	       -622.25745937	          0.29458877	          0.00000000	          0.11446650	          0.00000000	          0.00000000	          0.00000000	          0.00000000	          0.00000000	          0.00000000	          0.00000000	         22.03583304	          0.00000000	          0.00000000	          0.00000000	          0.00000000	
          0.02332283	      -2712.10644002	       4877.12280620	       -843.35920850	          0.34358245	          0.00000000	          0.12549137	          0.00000000	          0.00000000	          0.00000000	          0.00000000	          0.00000000	          0.00000000	          0.00000000	        173.60699192	          0.00000000	          0.00000000	          0.00000000	          0.00000000	
          0.02404608	      -3038.52037309	       6012.34812615	       -935.84071815	          0.34057447	          0.00000000	          0.12354386	          0.00000000	          0.00000000	          0.00000000	          0.00000000	          0.00000000	          0.00000000	          0.00000000	        204.26721664	          0.00000000	          0.00000000	          0.00000000	          0.00000000	
          0.02633124	       -622.04739104	       5510.24894102	       -597.95733245	          0.29228734	          0.00000000	          0.10862608	          0.00000000	          0.00000000	          0.00000000	          0.00000000	          0.00000000	          0.00000000	          0.00000000	         87.18772307	          0.00000000	          0.00000000	          0.00000000	          0.00000000	
          0.02798740	        -93.75230415	       5559.92515395	       -477.13586245	          0.28524064	          0.00000000	          0.10389765	          0.00000000	          0.00000000	          0.00000000	          0.00000000	          0.00000000	          0.00000000	          0.00000000	         66.87640660	          0.00000000	          0.00000000	          0.00000000	          0.00000000	
          0.02871065	        -79.06122812	       5612.22274191	       -434.37224655	          0.28814098	          0.00000000	          0.10302706	          0.00000000	          0.00000000	          0.00000000	          0.00000000	          0.00000000	          0.00000000	          0.00000000	         61.17078032	          0.00000000	          0.00000000	          0.00000000	          0.00000000	
          0.03099581	       -182.92182981	       5430.55024457	       -305.13742010	          0.30076776	          0.00000000	          0.10068537	          0.00000000	          0.00000000	          0.00000000	          0.00000000	          0.00000000	          0.00000000	          0.00000000	         46.19528583	          0.00000000	          0.00000000	          0.00000000	          0.00000000	
          0.03265197	       -252.00245686	       5103.75638645	       -202.56512110	          0.31109057	          0.00000000	          0.09893077	          0.00000000	          0.00000000	          0.00000000	          0.00000000	          0.00000000	          0.00000000	          0.00000000	         36.02464522	          0.00000000	          0.00000000	          0.00000000	          0.00000000	
